<svg version="1.1" id="Layer_1" xmlns="http://www.w3.org/2000/svg" xmlns:xlink="http://www.w3.org/1999/xlink" x="0px" y="0px"
	 width="100%" viewBox="0 0 96 96" enable-background="new 0 0 96 96" xml:space="preserve">
<path fill="#000000" opacity="1.000000" stroke="none" 
	d="
M70.000000,97.000000 
	C46.666672,97.000000 23.833342,97.000000 1.000009,97.000000 
	C1.000006,65.000008 1.000006,33.000019 1.000003,1.000022 
	C32.999985,1.000015 64.999969,1.000015 96.999969,1.000007 
	C96.999977,32.999981 96.999977,64.999962 96.999985,96.999969 
	C88.166672,97.000000 79.333336,97.000000 70.000000,97.000000 
M64.849976,29.492588 
	C64.650124,29.220448 64.389229,29.033442 63.927959,28.240610 
	C61.328182,23.476339 56.860275,21.781689 52.263786,23.459324 
	C50.202335,24.211716 49.359047,28.301704 47.202259,30.985403 
	C46.052654,31.443964 44.903053,31.902523 43.550861,32.151554 
	C43.550861,32.151554 43.275928,32.054821 42.754498,31.478865 
	C41.707481,31.001017 40.703869,30.356445 39.606808,30.070810 
	C27.027937,26.795746 25.942373,30.261190 27.233543,39.878872 
	C27.220165,40.193645 27.227156,40.507965 26.575956,41.004196 
	C25.378767,42.056835 24.181578,43.109470 22.365337,43.852127 
	C20.013584,42.610985 17.661833,41.369843 14.799609,39.600506 
	C12.926695,40.741203 9.730360,41.616489 9.438029,43.074162 
	C8.672363,46.892071 8.567082,51.093655 9.376411,54.891304 
	C9.953362,57.598545 12.209738,60.397007 16.758940,58.007584 
	C18.898750,56.672161 21.038559,55.336735 23.779913,54.248104 
	C24.947783,55.196182 26.115652,56.144260 27.229492,57.420094 
	C27.229492,57.420094 27.238146,57.752159 27.052822,58.530766 
	C25.796906,67.537537 27.365156,71.213715 39.403625,67.950920 
	C40.776901,67.578728 41.989029,66.611969 43.538872,65.811455 
	C43.538872,65.811455 43.721306,65.592674 44.453712,65.970024 
	C45.996368,66.240395 47.539024,66.510757 48.755741,66.896896 
	C48.755741,66.896896 48.860249,67.226624 48.855957,67.996857 
	C49.072392,71.757500 51.215775,72.854454 54.787991,73.080070 
	C60.860115,73.463570 64.255890,70.014496 67.181046,65.291702 
	C67.181046,65.291702 67.625244,65.251228 68.235176,65.043961 
	C68.531174,64.745842 68.827171,64.447723 69.765816,64.018181 
	C70.505287,63.623043 71.244751,63.227905 72.677429,62.762676 
	C76.821335,59.961922 81.407196,57.631241 85.004532,54.249134 
	C90.268021,49.300549 91.319450,45.014080 84.891739,40.624550 
	C80.704239,37.764874 75.698944,36.102722 70.822617,33.285892 
	C69.448235,32.961826 68.073860,32.637760 66.402122,32.066708 
	C66.402122,32.066708 66.087021,31.842800 66.005760,31.277224 
	C65.694061,30.827179 65.382362,30.377134 64.849976,29.492588 
z"/>
<path fill="#FD5824" opacity="1.000000" stroke="none" 
	d="
M67.625244,65.251228 
	C67.625244,65.251228 67.181046,65.291702 66.762222,65.358521 
	C60.761387,68.410576 55.063381,70.269943 48.860249,67.226624 
	C48.860249,67.226624 48.755741,66.896896 48.773849,66.501984 
	C44.105740,54.720840 43.525459,43.361332 49.420025,31.999821 
	C54.968731,31.935669 60.111065,31.913008 65.463020,31.899803 
	C65.672646,31.909262 66.087021,31.842800 66.087021,31.842800 
	C66.087021,31.842800 66.402122,32.066708 66.382011,32.539860 
	C61.152035,43.568954 61.849899,53.824032 67.772247,64.149361 
	C67.618042,64.746223 67.621643,64.998726 67.625244,65.251228 
z"/>
<path fill="#FF5823" opacity="1.000000" stroke="none" 
	d="
M71.060005,33.904106 
	C75.698944,36.102722 80.704239,37.764874 84.891739,40.624550 
	C91.319450,45.014080 90.268021,49.300549 85.004532,54.249134 
	C81.407196,57.631241 76.821335,59.961922 72.285271,62.447975 
	C66.271538,52.881260 64.938515,43.502682 71.060005,33.904106 
M78.925499,43.619934 
	C77.987717,41.160027 76.300041,40.001717 74.188705,41.984386 
	C73.478722,42.651108 73.480179,45.349194 74.190933,46.015755 
	C76.304306,47.997692 77.989960,46.836178 78.925499,43.619934 
z"/>
<path fill="#FF5924" opacity="1.000000" stroke="none" 
	d="
M27.238146,57.752159 
	C27.238146,57.752159 27.229492,57.420094 27.404282,56.918083 
	C27.691103,51.352776 27.803137,46.289478 28.219885,41.041965 
	C33.310894,38.540462 38.097191,36.223175 42.949848,34.311367 
	C39.921524,44.488632 40.700901,54.277050 42.524948,64.029015 
	C37.427860,61.986172 32.696022,59.985836 27.788414,57.909313 
	C27.612640,57.833126 27.238146,57.752159 27.238146,57.752159 
z"/>
<path fill="#FFF7F4" opacity="1.000000" stroke="none" 
	d="
M42.890202,64.071518 
	C40.700901,54.277050 39.921524,44.488632 43.054230,34.109451 
	C43.312649,33.121735 43.533051,32.741409 43.753448,32.361084 
	C44.903053,31.902523 46.052654,31.443964 47.772709,31.058567 
	C48.343159,31.131731 48.797409,31.188282 48.814537,31.410927 
	C48.831669,31.633570 49.013649,32.041313 49.013649,32.041313 
	C43.525459,43.361332 44.105740,54.720840 48.936817,66.444099 
	C47.539024,66.510757 45.996368,66.240395 44.060200,65.561226 
	C43.407856,64.792122 43.149029,64.431824 42.890202,64.071518 
z"/>
<path fill="#FC5722" opacity="1.000000" stroke="none" 
	d="
M23.178368,54.001312 
	C21.038559,55.336735 18.898750,56.672161 16.112888,57.820404 
	C11.626830,51.832306 12.142447,45.992378 15.310081,40.128700 
	C17.661833,41.369843 20.013584,42.610985 22.677608,44.451088 
	C23.052711,48.033802 23.115540,51.017559 23.178368,54.001312 
z"/>
<path fill="#FFF8F6" opacity="1.000000" stroke="none" 
	d="
M70.941315,33.595001 
	C64.938515,43.502682 66.271538,52.881260 71.938667,62.483021 
	C71.244751,63.227905 70.505287,63.623043 69.146744,63.994736 
	C68.328461,63.915859 68.129250,63.860432 67.930046,63.805004 
	C61.849899,53.824032 61.152035,43.568954 66.530685,32.663353 
	C68.073860,32.637760 69.448235,32.961826 70.941315,33.595001 
z"/>
<path fill="#39474E" opacity="1.000000" stroke="none" 
	d="
M15.054845,39.864601 
	C12.142447,45.992378 11.626830,51.832306 15.756109,57.869247 
	C12.209738,60.397007 9.953362,57.598545 9.376411,54.891304 
	C8.567082,51.093655 8.672363,46.892071 9.438029,43.074162 
	C9.730360,41.616489 12.926695,40.741203 15.054845,39.864601 
z"/>
<path fill="#3C474D" opacity="1.000000" stroke="none" 
	d="
M48.858101,67.611740 
	C55.063381,70.269943 60.761387,68.410576 66.768539,65.483337 
	C64.255890,70.014496 60.860115,73.463570 54.787991,73.080070 
	C51.215775,72.854454 49.072392,71.757500 48.858101,67.611740 
z"/>
<path fill="#D54B20" opacity="1.000000" stroke="none" 
	d="
M43.652153,32.256317 
	C43.533051,32.741409 43.312649,33.121735 42.987869,33.703972 
	C38.097191,36.223175 33.310894,38.540462 28.029449,40.981102 
	C27.534300,41.104454 27.254515,40.821835 27.254515,40.821835 
	C27.227156,40.507965 27.220165,40.193645 27.417953,39.329857 
	C28.527048,34.304924 31.773596,32.623344 35.848709,32.198112 
	C38.302711,31.942043 40.798771,32.088985 43.275928,32.054821 
	C43.275928,32.054821 43.550861,32.151554 43.652153,32.256317 
z"/>
<path fill="#D74B1F" opacity="1.000000" stroke="none" 
	d="
M42.524948,64.029015 
	C43.149029,64.431824 43.407856,64.792122 43.693996,65.372551 
	C43.721306,65.592674 43.538872,65.811455 42.937714,65.789986 
	C40.174294,65.773003 37.966942,66.059753 35.859180,65.723061 
	C31.510273,65.028381 27.646013,63.564701 27.964186,57.985500 
	C32.696022,59.985836 37.427860,61.986172 42.524948,64.029015 
z"/>
<path fill="#3C474D" opacity="1.000000" stroke="none" 
	d="
M48.797409,31.188282 
	C48.797409,31.188282 48.343159,31.131731 48.153069,31.004438 
	C49.359047,28.301704 50.202335,24.211716 52.263786,23.459324 
	C56.860275,21.781689 61.328182,23.476339 63.832840,28.776661 
	C63.628529,29.440331 63.519329,29.567947 63.092888,29.513130 
	C55.566513,25.744440 53.336365,26.040808 48.797409,31.188282 
z"/>
<path fill="#3E474D" opacity="1.000000" stroke="none" 
	d="
M27.788414,57.909313 
	C27.646013,63.564701 31.510273,65.028381 35.859180,65.723061 
	C37.966942,66.059753 40.174294,65.773003 42.806217,65.844711 
	C41.989029,66.611969 40.776901,67.578728 39.403625,67.950920 
	C27.365156,71.213715 25.796906,67.537537 27.145485,58.141464 
	C27.238146,57.752159 27.612640,57.833126 27.788414,57.909313 
z"/>
<path fill="#FFF8F6" opacity="1.000000" stroke="none" 
	d="
M26.915236,40.913017 
	C27.254515,40.821835 27.534300,41.104454 27.724735,41.165321 
	C27.803137,46.289478 27.691103,51.352776 27.431297,56.754204 
	C26.115652,56.144260 24.947783,55.196182 23.479141,54.124710 
	C23.115540,51.017559 23.052711,48.033802 22.987137,44.606079 
	C24.181578,43.109470 25.378767,42.056835 26.915236,40.913017 
z"/>
<path fill="#3B474D" opacity="1.000000" stroke="none" 
	d="
M43.015213,31.766842 
	C40.798771,32.088985 38.302711,31.942043 35.848709,32.198112 
	C31.773596,32.623344 28.527048,34.304924 27.400864,39.094547 
	C25.942373,30.261190 27.027937,26.795746 39.606808,30.070810 
	C40.703869,30.356445 41.707481,31.001017 43.015213,31.766842 
z"/>
<path fill="#3C474D" opacity="1.000000" stroke="none" 
	d="
M66.046387,31.560013 
	C66.087021,31.842800 65.672646,31.909262 65.377556,31.642830 
	C64.855515,31.096075 64.628555,30.815750 64.569313,30.383835 
	C64.737022,30.232243 65.070663,29.927090 65.070663,29.927090 
	C65.382362,30.377134 65.694061,30.827179 66.046387,31.560013 
z"/>
<path fill="#3C474D" opacity="1.000000" stroke="none" 
	d="
M63.902515,29.122139 
	C64.389229,29.033442 64.650124,29.220448 64.960320,29.709839 
	C65.070663,29.927090 64.737022,30.232243 64.393600,30.256615 
	C63.820187,30.104038 63.606842,29.908897 63.410133,29.695566 
	C63.519329,29.567947 63.628529,29.440331 63.902515,29.122139 
z"/>
<path fill="#3C474D" opacity="1.000000" stroke="none" 
	d="
M67.772247,64.149361 
	C68.129250,63.860432 68.328461,63.915859 68.825424,64.060448 
	C68.827171,64.447723 68.531174,64.745842 67.930206,65.147598 
	C67.621643,64.998726 67.618042,64.746223 67.772247,64.149361 
z"/>
<path fill="#DD4C1E" opacity="1.000000" stroke="none" 
	d="
M63.092888,29.513130 
	C63.606842,29.908897 63.820187,30.104038 64.225891,30.408207 
	C64.628555,30.815750 64.855515,31.096075 65.167931,31.633373 
	C60.111065,31.913008 54.968731,31.935669 49.420025,31.999821 
	C49.013649,32.041313 48.831669,31.633570 48.814537,31.410927 
	C53.336365,26.040808 55.566513,25.744440 63.092888,29.513130 
z"/>
<path fill="#592E23" opacity="1.000000" stroke="none" 
	d="
M78.925446,43.997997 
	C77.989960,46.836178 76.304306,47.997692 74.190933,46.015755 
	C73.480179,45.349194 73.478722,42.651108 74.188705,41.984386 
	C76.300041,40.001717 77.987717,41.160027 78.925446,43.997997 
z"/>
</svg>